<?xml version="1.0" encoding="UTF-8"?>
<svg xmlns="http://www.w3.org/2000/svg" xmlns:xlink="http://www.w3.org/1999/xlink" width="339.919938pt" height="368.719938pt" viewBox="0 0 339.919938 368.719938" version="1.1" id="Fig:pca"><defs><g><symbol overflow="visible" id="pca-glyph0-0"><path style="stroke:none;" d="M 0.9375 0 L 0.9375 -9 L 8.1875 -9 L 8.1875 0 Z M 7.0625 -1.125 L 7.0625 -7.875 L 2.0625 -7.875 L 2.0625 -1.125 Z "/></symbol><symbol overflow="visible" id="pca-glyph0-1"><path style="stroke:none;" d="M 5.6875 -4.265625 C 5.707031 -4.515625 5.671875 -4.738281 5.578125 -4.9375 C 5.441406 -5.207031 5.164062 -5.34375 4.75 -5.34375 C 4.164062 -5.34375 3.707031 -5.050781 3.375 -4.46875 C 3.1875 -4.15625 3.039062 -3.742188 2.9375 -3.234375 C 2.832031 -2.742188 2.804688 -2.351562 2.859375 -2.0625 C 2.941406 -1.507812 3.269531 -1.234375 3.84375 -1.234375 C 4.257812 -1.234375 4.570312 -1.34375 4.78125 -1.5625 C 5 -1.78125 5.164062 -2.0625 5.28125 -2.40625 L 7.0625 -2.40625 C 6.90625 -1.882812 6.609375 -1.382812 6.171875 -0.90625 C 5.460938 -0.144531 4.570312 0.234375 3.5 0.234375 C 2.425781 0.234375 1.703125 -0.0820312 1.328125 -0.71875 C 0.960938 -1.351562 0.890625 -2.175781 1.109375 -3.1875 C 1.347656 -4.332031 1.8125 -5.222656 2.5 -5.859375 C 3.195312 -6.492188 4.035156 -6.8125 5.015625 -6.8125 C 5.859375 -6.8125 6.503906 -6.625 6.953125 -6.25 C 7.398438 -5.875 7.570312 -5.210938 7.46875 -4.265625 Z "/></symbol><symbol overflow="visible" id="pca-glyph0-2"><path style="stroke:none;" d="M 1.265625 -5.359375 L 1.53125 -6.59375 L 2.453125 -6.59375 L 2.84375 -8.453125 L 4.578125 -8.453125 L 4.171875 -6.59375 L 5.25 -6.59375 L 5 -5.359375 L 3.90625 -5.359375 L 3.15625 -1.84375 C 3.101562 -1.5625 3.101562 -1.390625 3.15625 -1.328125 C 3.207031 -1.265625 3.410156 -1.234375 3.765625 -1.234375 C 3.816406 -1.234375 3.875 -1.234375 3.9375 -1.234375 C 4 -1.234375 4.0625 -1.234375 4.125 -1.234375 L 3.84375 0.0625 L 3.015625 0.09375 C 2.179688 0.125 1.648438 -0.015625 1.421875 -0.328125 C 1.265625 -0.535156 1.226562 -0.84375 1.3125 -1.25 L 2.1875 -5.359375 Z "/></symbol><symbol overflow="visible" id="pca-glyph0-3"><path style="stroke:none;" d="M 6.09375 -6.796875 L 5.71875 -5.015625 C 5.613281 -5.023438 5.515625 -5.03125 5.421875 -5.03125 C 5.335938 -5.039062 5.269531 -5.046875 5.21875 -5.046875 C 4.519531 -5.046875 4.003906 -4.816406 3.671875 -4.359375 C 3.484375 -4.109375 3.332031 -3.71875 3.21875 -3.1875 L 2.546875 0 L 0.796875 0 L 2.203125 -6.65625 L 3.859375 -6.65625 L 3.625 -5.5 C 3.976562 -5.9375 4.273438 -6.238281 4.515625 -6.40625 C 4.898438 -6.675781 5.351562 -6.8125 5.875 -6.8125 C 5.90625 -6.8125 5.929688 -6.8125 5.953125 -6.8125 C 5.972656 -6.8125 6.019531 -6.804688 6.09375 -6.796875 Z "/></symbol><symbol overflow="visible" id="pca-glyph0-4"><path style="stroke:none;" d="M 2.59375 0 L 0.84375 0 L 2.765625 -9 L 4.5 -9 Z "/></symbol><symbol overflow="visible" id="pca-glyph0-5"><path style="stroke:none;" d="M 6.328125 -5.8125 L 7 -8.984375 L 8.765625 -8.984375 L 6.859375 0 L 5.171875 0 L 5.375 -0.921875 C 5.039062 -0.523438 4.691406 -0.238281 4.328125 -0.0625 C 3.972656 0.113281 3.5625 0.203125 3.09375 0.203125 C 2.3125 0.203125 1.722656 -0.109375 1.328125 -0.734375 C 0.929688 -1.359375 0.835938 -2.164062 1.046875 -3.15625 C 1.296875 -4.289062 1.75 -5.179688 2.40625 -5.828125 C 3.070312 -6.484375 3.84375 -6.8125 4.71875 -6.8125 C 5.113281 -6.8125 5.445312 -6.722656 5.71875 -6.546875 C 6 -6.367188 6.203125 -6.125 6.328125 -5.8125 Z M 5.828125 -3.234375 C 6.003906 -4.046875 5.925781 -4.625 5.59375 -4.96875 C 5.382812 -5.1875 5.113281 -5.296875 4.78125 -5.296875 C 4.269531 -5.296875 3.851562 -5.101562 3.53125 -4.71875 C 3.21875 -4.332031 3 -3.851562 2.875 -3.28125 C 2.738281 -2.664062 2.753906 -2.171875 2.921875 -1.796875 C 3.085938 -1.429688 3.414062 -1.25 3.90625 -1.25 C 4.394531 -1.25 4.804688 -1.429688 5.140625 -1.796875 C 5.484375 -2.171875 5.710938 -2.648438 5.828125 -3.234375 Z "/></symbol><symbol overflow="visible" id="pca-glyph0-6"><path style="stroke:none;" d="M 4.1875 -7.453125 L 2.421875 -7.453125 L 2.765625 -9.046875 L 4.515625 -9.046875 Z M 2.25 -6.65625 L 4.015625 -6.65625 L 2.59375 0 L 0.84375 0 Z "/></symbol><symbol overflow="visible" id="pca-glyph0-7"><path style="stroke:none;" d="M 5.15625 -3.234375 C 5.039062 -3.160156 4.921875 -3.101562 4.796875 -3.0625 C 4.671875 -3.019531 4.507812 -2.984375 4.3125 -2.953125 L 3.90625 -2.875 C 3.519531 -2.8125 3.238281 -2.734375 3.0625 -2.640625 C 2.757812 -2.484375 2.578125 -2.234375 2.515625 -1.890625 C 2.441406 -1.597656 2.472656 -1.382812 2.609375 -1.25 C 2.742188 -1.125 2.929688 -1.0625 3.171875 -1.0625 C 3.546875 -1.0625 3.914062 -1.171875 4.28125 -1.390625 C 4.644531 -1.609375 4.894531 -2.007812 5.03125 -2.59375 Z M 4.28125 -4.046875 C 4.613281 -4.085938 4.851562 -4.140625 5 -4.203125 C 5.269531 -4.304688 5.429688 -4.46875 5.484375 -4.6875 C 5.535156 -4.96875 5.476562 -5.15625 5.3125 -5.25 C 5.144531 -5.351562 4.878906 -5.40625 4.515625 -5.40625 C 4.109375 -5.40625 3.796875 -5.304688 3.578125 -5.109375 C 3.421875 -4.960938 3.296875 -4.757812 3.203125 -4.5 L 1.53125 -4.5 C 1.6875 -5.082031 1.945312 -5.5625 2.3125 -5.9375 C 2.90625 -6.519531 3.757812 -6.8125 4.875 -6.8125 C 5.601562 -6.8125 6.21875 -6.664062 6.71875 -6.375 C 7.226562 -6.082031 7.398438 -5.539062 7.234375 -4.75 L 6.578125 -1.6875 C 6.523438 -1.476562 6.472656 -1.222656 6.421875 -0.921875 C 6.390625 -0.691406 6.390625 -0.535156 6.421875 -0.453125 C 6.460938 -0.367188 6.535156 -0.300781 6.640625 -0.25 L 6.59375 0 L 4.703125 0 C 4.671875 -0.132812 4.65625 -0.257812 4.65625 -0.375 C 4.664062 -0.5 4.679688 -0.632812 4.703125 -0.78125 C 4.410156 -0.519531 4.085938 -0.296875 3.734375 -0.109375 C 3.304688 0.0976562 2.859375 0.203125 2.390625 0.203125 C 1.785156 0.203125 1.320312 0.03125 1 -0.3125 C 0.6875 -0.65625 0.597656 -1.140625 0.734375 -1.765625 C 0.910156 -2.585938 1.351562 -3.179688 2.0625 -3.546875 C 2.445312 -3.742188 2.984375 -3.882812 3.671875 -3.96875 Z "/></symbol><symbol overflow="visible" id="pca-glyph0-8"><path style="stroke:none;" d="M 7.921875 -3.40625 C 7.703125 -2.375 7.273438 -1.519531 6.640625 -0.84375 C 6.003906 -0.164062 5.25 0.171875 4.375 0.171875 C 3.832031 0.171875 3.414062 0.0625 3.125 -0.15625 C 2.957031 -0.28125 2.789062 -0.507812 2.625 -0.84375 L 2.453125 0 L 0.75 0 L 2.65625 -8.984375 L 4.390625 -8.984375 L 3.71875 -5.78125 C 4 -6.09375 4.289062 -6.332031 4.59375 -6.5 C 4.945312 -6.695312 5.363281 -6.796875 5.84375 -6.796875 C 6.71875 -6.796875 7.332031 -6.476562 7.6875 -5.84375 C 8.050781 -5.21875 8.128906 -4.40625 7.921875 -3.40625 Z M 6.0625 -3.234375 C 6.164062 -3.703125 6.1875 -4.09375 6.125 -4.40625 C 6.019531 -4.988281 5.65625 -5.28125 5.03125 -5.28125 C 4.394531 -5.28125 3.898438 -4.992188 3.546875 -4.421875 C 3.359375 -4.117188 3.210938 -3.722656 3.109375 -3.234375 C 2.992188 -2.660156 3.019531 -2.1875 3.1875 -1.8125 C 3.363281 -1.4375 3.707031 -1.25 4.21875 -1.25 C 4.664062 -1.25 5.050781 -1.429688 5.375 -1.796875 C 5.707031 -2.160156 5.9375 -2.640625 6.0625 -3.234375 Z "/></symbol><symbol overflow="visible" id="pca-glyph0-9"><path style="stroke:none;" d="M 6.1875 -7.4375 L 4.4375 -7.4375 L 3.875 -4.78125 L 5.625 -4.78125 C 6.070312 -4.78125 6.441406 -4.890625 6.734375 -5.109375 C 7.023438 -5.328125 7.21875 -5.671875 7.3125 -6.140625 C 7.414062 -6.609375 7.363281 -6.941406 7.15625 -7.140625 C 6.957031 -7.335938 6.632812 -7.4375 6.1875 -7.4375 Z M 5.453125 -3.234375 L 3.546875 -3.234375 L 2.859375 0 L 1 0 L 2.90625 -9 L 6.828125 -9 C 7.722656 -9 8.390625 -8.765625 8.828125 -8.296875 C 9.265625 -7.835938 9.382812 -7.117188 9.1875 -6.140625 C 8.957031 -5.078125 8.523438 -4.328125 7.890625 -3.890625 C 7.265625 -3.453125 6.453125 -3.234375 5.453125 -3.234375 Z "/></symbol><symbol overflow="visible" id="pca-glyph0-10"><path style="stroke:none;" d="M 3.53125 -8.0625 C 4.425781 -8.800781 5.4375 -9.171875 6.5625 -9.171875 C 8.082031 -9.171875 9.085938 -8.671875 9.578125 -7.671875 C 9.835938 -7.117188 9.921875 -6.5625 9.828125 -6 L 7.953125 -6 C 7.921875 -6.425781 7.832031 -6.75 7.6875 -6.96875 C 7.4375 -7.363281 6.972656 -7.5625 6.296875 -7.5625 C 5.617188 -7.5625 5.019531 -7.285156 4.5 -6.734375 C 3.988281 -6.179688 3.628906 -5.398438 3.421875 -4.390625 C 3.203125 -3.378906 3.242188 -2.625 3.546875 -2.125 C 3.859375 -1.625 4.335938 -1.375 4.984375 -1.375 C 5.640625 -1.375 6.191406 -1.585938 6.640625 -2.015625 C 6.878906 -2.253906 7.109375 -2.601562 7.328125 -3.0625 L 9.1875 -3.0625 C 8.820312 -2.082031 8.238281 -1.285156 7.4375 -0.671875 C 6.632812 -0.0546875 5.710938 0.25 4.671875 0.25 C 3.378906 0.25 2.445312 -0.164062 1.875 -1 C 1.3125 -1.832031 1.1875 -2.972656 1.5 -4.421875 C 1.832031 -5.992188 2.507812 -7.207031 3.53125 -8.0625 Z "/></symbol><symbol overflow="visible" id="pca-glyph0-11"><path style="stroke:none;" d="M 2.15625 -6.109375 L 2.40625 -7.28125 C 2.96875 -7.3125 3.363281 -7.347656 3.59375 -7.390625 C 3.957031 -7.472656 4.273438 -7.628906 4.546875 -7.859375 C 4.734375 -8.015625 4.890625 -8.226562 5.015625 -8.5 C 5.097656 -8.65625 5.144531 -8.769531 5.15625 -8.84375 L 6.609375 -8.84375 L 4.734375 0 L 2.953125 0 L 4.234375 -6.109375 Z "/></symbol><symbol overflow="visible" id="pca-glyph1-0"><path style="stroke:none;" d="M 0 -0.9375 L -9 -0.9375 L -9 -8.1875 L 0 -8.1875 Z M -1.125 -7.0625 L -7.875 -7.0625 L -7.875 -2.0625 L -1.125 -2.0625 Z "/></symbol><symbol overflow="visible" id="pca-glyph1-1"><path style="stroke:none;" d="M -7.4375 -6.1875 L -7.4375 -4.4375 L -4.78125 -3.875 L -4.78125 -5.625 C -4.78125 -6.070312 -4.890625 -6.441406 -5.109375 -6.734375 C -5.328125 -7.023438 -5.671875 -7.21875 -6.140625 -7.3125 C -6.609375 -7.414062 -6.941406 -7.363281 -7.140625 -7.15625 C -7.335938 -6.957031 -7.4375 -6.632812 -7.4375 -6.1875 Z M -3.234375 -5.453125 L -3.234375 -3.546875 L 0 -2.859375 L 0 -1 L -9 -2.90625 L -9 -6.828125 C -9 -7.722656 -8.765625 -8.390625 -8.296875 -8.828125 C -7.835938 -9.265625 -7.117188 -9.382812 -6.140625 -9.1875 C -5.078125 -8.957031 -4.328125 -8.523438 -3.890625 -7.890625 C -3.453125 -7.265625 -3.234375 -6.453125 -3.234375 -5.453125 Z "/></symbol><symbol overflow="visible" id="pca-glyph1-2"><path style="stroke:none;" d="M -8.0625 -3.53125 C -8.800781 -4.425781 -9.171875 -5.4375 -9.171875 -6.5625 C -9.171875 -8.082031 -8.671875 -9.085938 -7.671875 -9.578125 C -7.117188 -9.835938 -6.5625 -9.921875 -6 -9.828125 L -6 -7.953125 C -6.425781 -7.921875 -6.75 -7.832031 -6.96875 -7.6875 C -7.363281 -7.4375 -7.5625 -6.972656 -7.5625 -6.296875 C -7.5625 -5.617188 -7.285156 -5.019531 -6.734375 -4.5 C -6.179688 -3.988281 -5.398438 -3.628906 -4.390625 -3.421875 C -3.378906 -3.203125 -2.625 -3.242188 -2.125 -3.546875 C -1.625 -3.859375 -1.375 -4.335938 -1.375 -4.984375 C -1.375 -5.640625 -1.585938 -6.191406 -2.015625 -6.640625 C -2.253906 -6.878906 -2.601562 -7.109375 -3.0625 -7.328125 L -3.0625 -9.1875 C -2.082031 -8.820312 -1.285156 -8.238281 -0.671875 -7.4375 C -0.0546875 -6.632812 0.25 -5.710938 0.25 -4.671875 C 0.25 -3.378906 -0.164062 -2.445312 -1 -1.875 C -1.832031 -1.3125 -2.972656 -1.1875 -4.421875 -1.5 C -5.992188 -1.832031 -7.207031 -2.507812 -8.0625 -3.53125 Z "/></symbol><symbol overflow="visible" id="pca-glyph1-3"><path style="stroke:none;" d="M -1.734375 -1.171875 C -2.328125 -1.546875 -2.953125 -2.265625 -3.609375 -3.328125 C -4.179688 -4.242188 -4.59375 -4.847656 -4.84375 -5.140625 C -5.226562 -5.578125 -5.648438 -5.847656 -6.109375 -5.953125 C -6.484375 -6.035156 -6.796875 -6 -7.046875 -5.84375 C -7.296875 -5.6875 -7.421875 -5.414062 -7.421875 -5.03125 C -7.421875 -4.5 -7.222656 -4.097656 -6.828125 -3.828125 C -6.597656 -3.660156 -6.238281 -3.519531 -5.75 -3.40625 L -5.75 -1.703125 C -6.5 -1.890625 -7.101562 -2.15625 -7.5625 -2.5 C -8.445312 -3.15625 -8.890625 -4.070312 -8.890625 -5.25 C -8.890625 -6.1875 -8.628906 -6.875 -8.109375 -7.3125 C -7.597656 -7.757812 -6.914062 -7.894531 -6.0625 -7.71875 C -5.40625 -7.570312 -4.820312 -7.253906 -4.3125 -6.765625 C -3.96875 -6.429688 -3.59375 -5.925781 -3.1875 -5.25 L -2.6875 -4.453125 C -2.375 -3.953125 -2.148438 -3.601562 -2.015625 -3.40625 C -1.878906 -3.21875 -1.71875 -3.050781 -1.53125 -2.90625 L -1.53125 -6.78125 L 0 -6.453125 L 0 -0.390625 C -0.632812 -0.535156 -1.210938 -0.796875 -1.734375 -1.171875 Z "/></symbol><symbol overflow="visible" id="pca-glyph2-0"><path style="stroke:none;" d="M 0.765625 0 L 0.765625 -7.265625 L 6.609375 -7.265625 L 6.609375 0 Z M 5.703125 -0.90625 L 5.703125 -6.359375 L 1.671875 -6.359375 L 1.671875 -0.90625 Z "/></symbol><symbol overflow="visible" id="pca-glyph2-1"><path style="stroke:none;" d="M 0.96875 -3.484375 L 3.796875 -3.484375 L 3.515625 -2.15625 L 0.6875 -2.15625 Z "/></symbol><symbol overflow="visible" id="pca-glyph2-2"><path style="stroke:none;" d="M 5.609375 -1.53125 L 4.796875 -1.53125 L 4.46875 0 L 3.09375 0 L 3.421875 -1.53125 L 0.59375 -1.53125 L 0.859375 -2.765625 L 4.40625 -7.109375 L 5.984375 -7.109375 L 5.03125 -2.640625 L 5.828125 -2.640625 Z M 3.65625 -2.640625 L 4.3125 -5.71875 L 1.859375 -2.640625 Z "/></symbol><symbol overflow="visible" id="pca-glyph2-3"><path style="stroke:none;" d="M 2.984375 -0.96875 C 3.398438 -0.96875 3.71875 -1.179688 3.9375 -1.609375 C 4.15625 -2.046875 4.359375 -2.675781 4.546875 -3.5 C 4.722656 -4.363281 4.789062 -5 4.75 -5.40625 C 4.707031 -5.820312 4.476562 -6.03125 4.0625 -6.03125 C 3.644531 -6.03125 3.320312 -5.820312 3.09375 -5.40625 C 2.875 -5 2.675781 -4.363281 2.5 -3.5 C 2.320312 -2.675781 2.253906 -2.046875 2.296875 -1.609375 C 2.335938 -1.179688 2.566406 -0.96875 2.984375 -0.96875 Z M 5.984375 -3.5 C 5.734375 -2.320312 5.359375 -1.414062 4.859375 -0.78125 C 4.359375 -0.144531 3.648438 0.171875 2.734375 0.171875 C 1.828125 0.171875 1.257812 -0.144531 1.03125 -0.78125 C 0.800781 -1.414062 0.8125 -2.320312 1.0625 -3.5 C 1.3125 -4.6875 1.6875 -5.597656 2.1875 -6.234375 C 2.6875 -6.878906 3.394531 -7.203125 4.3125 -7.203125 C 5.21875 -7.203125 5.785156 -6.878906 6.015625 -6.234375 C 6.242188 -5.597656 6.234375 -4.6875 5.984375 -3.5 Z "/></symbol><symbol overflow="visible" id="pca-glyph2-4"><path style="stroke:none;" d="M 0.9375 -1.40625 C 1.238281 -1.882812 1.820312 -2.390625 2.6875 -2.921875 C 3.425781 -3.378906 3.914062 -3.707031 4.15625 -3.90625 C 4.507812 -4.21875 4.726562 -4.5625 4.8125 -4.9375 C 4.875 -5.238281 4.84375 -5.488281 4.71875 -5.6875 C 4.59375 -5.894531 4.375 -6 4.0625 -6 C 3.632812 -6 3.304688 -5.835938 3.078125 -5.515625 C 2.953125 -5.328125 2.84375 -5.035156 2.75 -4.640625 L 1.375 -4.640625 C 1.53125 -5.242188 1.742188 -5.734375 2.015625 -6.109375 C 2.546875 -6.828125 3.289062 -7.1875 4.25 -7.1875 C 5 -7.1875 5.550781 -6.972656 5.90625 -6.546875 C 6.269531 -6.128906 6.378906 -5.578125 6.234375 -4.890625 C 6.117188 -4.359375 5.859375 -3.890625 5.453125 -3.484375 C 5.191406 -3.210938 4.789062 -2.90625 4.25 -2.5625 L 3.59375 -2.171875 C 3.1875 -1.921875 2.90625 -1.738281 2.75 -1.625 C 2.601562 -1.507812 2.46875 -1.378906 2.34375 -1.234375 L 5.46875 -1.234375 L 5.203125 0 L 0.3125 0 C 0.4375 -0.507812 0.644531 -0.976562 0.9375 -1.40625 Z "/></symbol><symbol overflow="visible" id="pca-glyph2-5"><path style="stroke:none;" d="M 2.0625 -1.90625 C 2.0625 -1.601562 2.117188 -1.367188 2.234375 -1.203125 C 2.359375 -1.035156 2.570312 -0.953125 2.875 -0.953125 C 3.226562 -0.953125 3.519531 -1.070312 3.75 -1.3125 C 3.976562 -1.5625 4.132812 -1.875 4.21875 -2.25 C 4.300781 -2.613281 4.28125 -2.921875 4.15625 -3.171875 C 4.039062 -3.421875 3.800781 -3.546875 3.4375 -3.546875 C 3.269531 -3.546875 3.117188 -3.523438 2.984375 -3.484375 C 2.742188 -3.398438 2.546875 -3.253906 2.390625 -3.046875 L 1.140625 -3.109375 L 2.484375 -7.046875 L 6.421875 -7.046875 L 6.171875 -5.859375 L 3.25 -5.859375 L 2.65625 -4.296875 C 2.90625 -4.441406 3.097656 -4.535156 3.234375 -4.578125 C 3.453125 -4.648438 3.707031 -4.6875 4 -4.6875 C 4.59375 -4.6875 5.066406 -4.488281 5.421875 -4.09375 C 5.773438 -3.695312 5.867188 -3.117188 5.703125 -2.359375 C 5.566406 -1.703125 5.226562 -1.113281 4.6875 -0.59375 C 4.15625 -0.0703125 3.46875 0.1875 2.625 0.1875 C 1.945312 0.1875 1.425781 0.00390625 1.0625 -0.359375 C 0.707031 -0.722656 0.578125 -1.238281 0.671875 -1.90625 Z "/></symbol></g></defs><g id="surface51"><path style="fill-rule:nonzero;fill:rgb(89.411765%,10.196078%,10.980392%);fill-opacity:1;stroke-width:1;stroke-linecap:round;stroke-linejoin:round;stroke:rgb(0%,0%,0%);stroke-opacity:1;stroke-miterlimit:10;" d="M 130.386719 68.433594 L 168.5625 68.433594 L 168.5625 80.3125 L 130.386719 80.3125 Z "/><path style="fill-rule:nonzero;fill:rgb(21.568627%,49.411765%,72.156863%);fill-opacity:1;stroke-width:1;stroke-linecap:round;stroke-linejoin:round;stroke:rgb(0%,0%,0%);stroke-opacity:1;stroke-miterlimit:10;" d="M 130.386719 80.3125 L 168.5625 80.3125 L 168.5625 92.191406 L 130.386719 92.191406 Z "/><g style="fill:rgb(0%,0%,0%);fill-opacity:1;"><use xlink:href="#pca-glyph0-1" x="183.835938" y="78.875"/><use xlink:href="#pca-glyph0-2" x="190.787842" y="78.875"/><use xlink:href="#pca-glyph0-3" x="194.950439" y="78.875"/><use xlink:href="#pca-glyph0-4" x="199.814941" y="78.875"/></g><g style="fill:rgb(0%,0%,0%);fill-opacity:1;"><use xlink:href="#pca-glyph0-5" x="183.835938" y="90.753906"/><use xlink:href="#pca-glyph0-6" x="191.471436" y="90.753906"/><use xlink:href="#pca-glyph0-7" x="194.944336" y="90.753906"/><use xlink:href="#pca-glyph0-8" x="201.89624" y="90.753906"/></g><g style="fill:rgb(0%,0%,0%);fill-opacity:1;"><use xlink:href="#pca-glyph0-9" x="169.597656" y="294.285156"/><use xlink:href="#pca-glyph0-10" x="177.935059" y="294.285156"/><use xlink:href="#pca-glyph0-11" x="186.962158" y="294.285156"/></g><g style="fill:rgb(0%,0%,0%);fill-opacity:1;"><use xlink:href="#pca-glyph1-1" x="15" y="200.261719"/><use xlink:href="#pca-glyph1-2" x="15" y="191.924316"/><use xlink:href="#pca-glyph1-3" x="15" y="182.897217"/></g><path style="fill:none;stroke-width:1;stroke-linecap:round;stroke-linejoin:round;stroke:rgb(0%,0%,0%);stroke-opacity:1;stroke-miterlimit:10;" d="M 106.910156 121.199219 L 106.910156 115.53125 "/><path style="fill:none;stroke-width:1;stroke-linecap:round;stroke-linejoin:round;stroke:rgb(0%,0%,0%);stroke-opacity:1;stroke-miterlimit:10;" d="M 175.78125 121.199219 L 175.78125 115.53125 "/><path style="fill:none;stroke-width:1;stroke-linecap:round;stroke-linejoin:round;stroke:rgb(0%,0%,0%);stroke-opacity:1;stroke-miterlimit:10;" d="M 244.648438 121.199219 L 244.648438 115.53125 "/><path style="fill:none;stroke-width:1;stroke-linecap:round;stroke-linejoin:round;stroke:rgb(0%,0%,0%);stroke-opacity:1;stroke-miterlimit:10;" d="M 52.597656 240.835938 L 46.925781 240.835938 "/><path style="fill:none;stroke-width:1;stroke-linecap:round;stroke-linejoin:round;stroke:rgb(0%,0%,0%);stroke-opacity:1;stroke-miterlimit:10;" d="M 52.597656 213.289062 L 46.925781 213.289062 "/><path style="fill:none;stroke-width:1;stroke-linecap:round;stroke-linejoin:round;stroke:rgb(0%,0%,0%);stroke-opacity:1;stroke-miterlimit:10;" d="M 52.597656 185.742188 L 46.925781 185.742188 "/><path style="fill:none;stroke-width:1;stroke-linecap:round;stroke-linejoin:round;stroke:rgb(0%,0%,0%);stroke-opacity:1;stroke-miterlimit:10;" d="M 52.597656 158.195312 L 46.925781 158.195312 "/><path style="fill:none;stroke-width:1;stroke-linecap:round;stroke-linejoin:round;stroke:rgb(0%,0%,0%);stroke-opacity:1;stroke-miterlimit:10;" d="M 52.597656 130.648438 L 46.925781 130.648438 "/><g style="fill:rgb(0%,0%,0%);fill-opacity:1;"><use xlink:href="#pca-glyph2-1" x="26.667969" y="244.46875"/><use xlink:href="#pca-glyph2-2" x="30.029266" y="244.46875"/><use xlink:href="#pca-glyph2-3" x="35.642929" y="244.46875"/></g><g style="fill:rgb(0%,0%,0%);fill-opacity:1;"><use xlink:href="#pca-glyph2-1" x="26.667969" y="216.921875"/><use xlink:href="#pca-glyph2-4" x="30.029266" y="216.921875"/><use xlink:href="#pca-glyph2-3" x="35.642929" y="216.921875"/></g><g style="fill:rgb(0%,0%,0%);fill-opacity:1;"><use xlink:href="#pca-glyph2-3" x="35.644531" y="189.375"/></g><g style="fill:rgb(0%,0%,0%);fill-opacity:1;"><use xlink:href="#pca-glyph2-4" x="30.03125" y="161.828125"/><use xlink:href="#pca-glyph2-3" x="35.644913" y="161.828125"/></g><g style="fill:rgb(0%,0%,0%);fill-opacity:1;"><use xlink:href="#pca-glyph2-2" x="30.03125" y="134.28125"/><use xlink:href="#pca-glyph2-3" x="35.644913" y="134.28125"/></g><path style="fill:none;stroke-width:1;stroke-linecap:round;stroke-linejoin:round;stroke:rgb(0%,0%,0%);stroke-opacity:1;stroke-miterlimit:10;" d="M 106.910156 255.011719 L 106.910156 260.683594 "/><path style="fill:none;stroke-width:1;stroke-linecap:round;stroke-linejoin:round;stroke:rgb(0%,0%,0%);stroke-opacity:1;stroke-miterlimit:10;" d="M 175.78125 255.011719 L 175.78125 260.683594 "/><path style="fill:none;stroke-width:1;stroke-linecap:round;stroke-linejoin:round;stroke:rgb(0%,0%,0%);stroke-opacity:1;stroke-miterlimit:10;" d="M 244.648438 255.011719 L 244.648438 260.683594 "/><g style="fill:rgb(0%,0%,0%);fill-opacity:1;"><use xlink:href="#pca-glyph2-1" x="99.617188" y="273.617188"/><use xlink:href="#pca-glyph2-5" x="102.978485" y="273.617188"/><use xlink:href="#pca-glyph2-3" x="108.592148" y="273.617188"/></g><g style="fill:rgb(0%,0%,0%);fill-opacity:1;"><use xlink:href="#pca-glyph2-3" x="172.972656" y="273.617188"/></g><g style="fill:rgb(0%,0%,0%);fill-opacity:1;"><use xlink:href="#pca-glyph2-5" x="239.035156" y="273.617188"/><use xlink:href="#pca-glyph2-3" x="244.648819" y="273.617188"/></g><path style="fill:none;stroke-width:1;stroke-linecap:round;stroke-linejoin:round;stroke:rgb(0%,0%,0%);stroke-opacity:1;stroke-miterlimit:10;" d="M 310.910156 240.835938 L 316.582031 240.835938 "/><path style="fill:none;stroke-width:1;stroke-linecap:round;stroke-linejoin:round;stroke:rgb(0%,0%,0%);stroke-opacity:1;stroke-miterlimit:10;" d="M 310.910156 213.289062 L 316.582031 213.289062 "/><path style="fill:none;stroke-width:1;stroke-linecap:round;stroke-linejoin:round;stroke:rgb(0%,0%,0%);stroke-opacity:1;stroke-miterlimit:10;" d="M 310.910156 185.742188 L 316.582031 185.742188 "/><path style="fill:none;stroke-width:1;stroke-linecap:round;stroke-linejoin:round;stroke:rgb(0%,0%,0%);stroke-opacity:1;stroke-miterlimit:10;" d="M 310.910156 158.195312 L 316.582031 158.195312 "/><path style="fill:none;stroke-width:1;stroke-linecap:round;stroke-linejoin:round;stroke:rgb(0%,0%,0%);stroke-opacity:1;stroke-miterlimit:10;" d="M 310.910156 130.648438 L 316.582031 130.648438 "/><path style="fill-rule:nonzero;fill:rgb(89.411765%,10.196078%,10.980392%);fill-opacity:1;stroke-width:1;stroke-linecap:round;stroke-linejoin:round;stroke:rgb(89.411765%,10.196078%,10.980392%);stroke-opacity:1;stroke-miterlimit:10;" d="M 89.796875 177.832031 C 89.796875 182.5 82.796875 182.5 82.796875 177.832031 C 82.796875 173.164062 89.796875 173.164062 89.796875 177.832031 "/><path style="fill-rule:nonzero;fill:rgb(89.411765%,10.196078%,10.980392%);fill-opacity:1;stroke-width:1;stroke-linecap:round;stroke-linejoin:round;stroke:rgb(89.411765%,10.196078%,10.980392%);stroke-opacity:1;stroke-miterlimit:10;" d="M 91.367188 213.738281 C 91.367188 218.402344 84.367188 218.402344 84.367188 213.738281 C 84.367188 209.070312 91.367188 209.070312 91.367188 213.738281 "/><path style="fill-rule:nonzero;fill:rgb(89.411765%,10.196078%,10.980392%);fill-opacity:1;stroke-width:1;stroke-linecap:round;stroke-linejoin:round;stroke:rgb(89.411765%,10.196078%,10.980392%);stroke-opacity:1;stroke-miterlimit:10;" d="M 71.957031 222.121094 C 71.957031 226.785156 64.957031 226.785156 64.957031 222.121094 C 64.957031 217.453125 71.957031 217.453125 71.957031 222.121094 "/><path style="fill-rule:nonzero;fill:rgb(89.411765%,10.196078%,10.980392%);fill-opacity:1;stroke-width:1;stroke-linecap:round;stroke-linejoin:round;stroke:rgb(89.411765%,10.196078%,10.980392%);stroke-opacity:1;stroke-miterlimit:10;" d="M 247.214844 246.796875 C 247.214844 251.464844 240.214844 251.464844 240.214844 246.796875 C 240.214844 242.128906 247.214844 242.128906 247.214844 246.796875 "/><path style="fill-rule:nonzero;fill:rgb(89.411765%,10.196078%,10.980392%);fill-opacity:1;stroke-width:1;stroke-linecap:round;stroke-linejoin:round;stroke:rgb(89.411765%,10.196078%,10.980392%);stroke-opacity:1;stroke-miterlimit:10;" d="M 124.027344 130.773438 C 124.027344 135.4375 117.027344 135.4375 117.027344 130.773438 C 117.027344 126.105469 124.027344 126.105469 124.027344 130.773438 "/><path style="fill-rule:nonzero;fill:rgb(89.411765%,10.196078%,10.980392%);fill-opacity:1;stroke-width:1;stroke-linecap:round;stroke-linejoin:round;stroke:rgb(89.411765%,10.196078%,10.980392%);stroke-opacity:1;stroke-miterlimit:10;" d="M 139.203125 136.867188 C 139.203125 141.535156 132.203125 141.535156 132.203125 136.867188 C 132.203125 132.203125 139.203125 132.203125 139.203125 136.867188 "/><path style="fill-rule:nonzero;fill:rgb(89.411765%,10.196078%,10.980392%);fill-opacity:1;stroke-width:1;stroke-linecap:round;stroke-linejoin:round;stroke:rgb(89.411765%,10.196078%,10.980392%);stroke-opacity:1;stroke-miterlimit:10;" d="M 118.199219 190.65625 C 118.199219 195.320312 111.199219 195.320312 111.199219 190.65625 C 111.199219 185.988281 118.199219 185.988281 118.199219 190.65625 "/><path style="fill-rule:nonzero;fill:rgb(21.568627%,49.411765%,72.156863%);fill-opacity:1;stroke-width:1;stroke-linecap:round;stroke-linejoin:round;stroke:rgb(21.568627%,49.411765%,72.156863%);stroke-opacity:1;stroke-miterlimit:10;" d="M 175.839844 198.988281 C 175.839844 203.65625 168.839844 203.65625 168.839844 198.988281 C 168.839844 194.324219 175.839844 194.324219 175.839844 198.988281 "/><path style="fill-rule:nonzero;fill:rgb(21.568627%,49.411765%,72.156863%);fill-opacity:1;stroke-width:1;stroke-linecap:round;stroke-linejoin:round;stroke:rgb(21.568627%,49.411765%,72.156863%);stroke-opacity:1;stroke-miterlimit:10;" d="M 243.71875 171.894531 C 243.71875 176.558594 236.71875 176.558594 236.71875 171.894531 C 236.71875 167.226562 243.71875 167.226562 243.71875 171.894531 "/><path style="fill-rule:nonzero;fill:rgb(21.568627%,49.411765%,72.156863%);fill-opacity:1;stroke-width:1;stroke-linecap:round;stroke-linejoin:round;stroke:rgb(21.568627%,49.411765%,72.156863%);stroke-opacity:1;stroke-miterlimit:10;" d="M 284.214844 227.953125 C 284.214844 232.621094 277.214844 232.621094 277.214844 227.953125 C 277.214844 223.285156 284.214844 223.285156 284.214844 227.953125 "/><path style="fill-rule:nonzero;fill:rgb(21.568627%,49.411765%,72.156863%);fill-opacity:1;stroke-width:1;stroke-linecap:round;stroke-linejoin:round;stroke:rgb(21.568627%,49.411765%,72.156863%);stroke-opacity:1;stroke-miterlimit:10;" d="M 298.550781 166.570312 C 298.550781 171.238281 291.550781 171.238281 291.550781 166.570312 C 291.550781 161.90625 298.550781 161.90625 298.550781 166.570312 "/><path style="fill-rule:nonzero;fill:rgb(21.568627%,49.411765%,72.156863%);fill-opacity:1;stroke-width:1;stroke-linecap:round;stroke-linejoin:round;stroke:rgb(21.568627%,49.411765%,72.156863%);stroke-opacity:1;stroke-miterlimit:10;" d="M 187.15625 201.054688 C 187.15625 205.71875 180.15625 205.71875 180.15625 201.054688 C 180.15625 196.386719 187.15625 196.386719 187.15625 201.054688 "/><path style="fill-rule:nonzero;fill:rgb(21.568627%,49.411765%,72.156863%);fill-opacity:1;stroke-width:1;stroke-linecap:round;stroke-linejoin:round;stroke:rgb(21.568627%,49.411765%,72.156863%);stroke-opacity:1;stroke-miterlimit:10;" d="M 259.382812 129.417969 C 259.382812 134.085938 252.382812 134.085938 252.382812 129.417969 C 252.382812 124.75 259.382812 124.75 259.382812 129.417969 "/><path style="fill:none;stroke-width:1;stroke-linecap:round;stroke-linejoin:round;stroke:rgb(0%,0%,0%);stroke-opacity:1;stroke-miterlimit:10;" d="M 52.597656 121.199219 L 310.914062 121.199219 L 310.914062 255.011719 L 52.597656 255.011719 Z "/></g></svg>
